<svg xmlns="http://www.w3.org/2000/svg" xmlns:xlink="http://www.w3.org/1999/xlink" viewBox="0 0 449.14 287.67"><defs><style>.cls-1{isolation:isolate;}.cls-2{fill:url(#radial-gradient);}.cls-3{fill:#002c59;}.cls-4{fill:#eac363;}.cls-5{fill:url(#radial-gradient-2);}.cls-6{fill:url(#radial-gradient-3);}.cls-7{fill:url(#radial-gradient-4);}.cls-8{fill:url(#radial-gradient-5);}.cls-9{mix-blend-mode:screen;fill:url(#linear-gradient);}.cls-10{font-size:135.7px;fill:#fff;font-family:Nunito-Bold, Nunito;font-weight:700;}</style><radialGradient id="radial-gradient" cx="294.92" cy="142.49" r="142.03" gradientUnits="userSpaceOnUse"><stop offset="0" stop-color="#fcd700"/><stop offset="0.24" stop-color="#f8ca00"/><stop offset="0.69" stop-color="#f3b501"/><stop offset="1" stop-color="#f1ae01"/></radialGradient><radialGradient id="radial-gradient-2" cx="165.62" cy="21.89" r="216.24" xlink:href="#radial-gradient"/><radialGradient id="radial-gradient-3" cx="162.72" cy="1.4" r="68.16" gradientUnits="userSpaceOnUse"><stop offset="0" stop-color="#f5bc00"/><stop offset="0.18" stop-color="#f0a801"/><stop offset="0.52" stop-color="#e78701"/><stop offset="0.81" stop-color="#e27202"/><stop offset="1" stop-color="#e06b02"/></radialGradient><radialGradient id="radial-gradient-4" cx="85.39" cy="143.22" r="102.8" xlink:href="#radial-gradient-3"/><radialGradient id="radial-gradient-5" cx="168.71" cy="96.7" r="140.71" xlink:href="#radial-gradient-3"/><linearGradient id="linear-gradient" x1="155.93" y1="168.07" x2="105.9" y2="41.05" gradientUnits="userSpaceOnUse"><stop offset="0" stop-color="#fff"/><stop offset="0.27" stop-color="#a9a9a9"/><stop offset="0.58" stop-color="#4f4f4f"/><stop offset="0.79" stop-color="#161616"/><stop offset="0.9"/></linearGradient></defs><g class="cls-1"><g id="bg"><path class="cls-2" d="M474.57,142.48l-36.9,44.91-36.9,44.92H115.27V217.68a75.21,75.21,0,0,0,0-150.41V52.66h285.5l36.9,44.92Z" transform="translate(-25.43 -8.06)"/><path class="cls-3" d="M459.26,142.48,425.5,183.57l-33.76,41.09H130.58V211.27a68.8,68.8,0,0,0,0-137.59V60.32H391.74L425.5,101.4Z" transform="translate(-25.43 -8.06)"/><path class="cls-4" d="M115.27,52.66a89.83,89.83,0,1,0,89.81,89.82A89.83,89.83,0,0,0,115.27,52.66Zm0,165a75.21,75.21,0,1,1,75.2-75.2A75.2,75.2,0,0,1,115.27,217.68Z" transform="translate(-25.43 -8.06)"/><circle class="cls-3" cx="115.27" cy="142.48" r="75.2" transform="translate(-92.42 115.18) rotate(-45)"/><polygon class="cls-5" points="57.74 22.67 32.34 141.1 79.24 141.1 47.58 282.98 148.42 93.81 93.31 93.81 148.42 0 57.74 22.67"/><polygon class="cls-6" points="102.32 93.81 154.68 4.69 148.42 0 93.31 93.81 102.32 93.81"/><polygon class="cls-7" points="32.34 141.1 38.59 145.79 78.2 145.79 47.58 282.98 79.24 141.1 32.34 141.1"/><polygon class="cls-8" points="47.58 282.98 53.84 287.67 154.68 98.5 148.42 93.81 47.58 282.98"/><path class="cls-9" d="M118.75,101.86l55.11-93.8L83.18,30.73l-22,102.4A122.71,122.71,0,0,0,120,126.3a123.8,123.8,0,0,0,40.27-24.44Z" transform="translate(-25.43 -8.06)"/></g><g id="text"><text id="energy" class="cls-10" transform="translate(232.62 182.81)">2</text></g></g></svg>