<svg xmlns="http://www.w3.org/2000/svg" xmlnsXlink="http://www.w3.org/1999/xlink" viewBox="0 0 449.14 287.67"><defs><radialGradient id="radial-gradient" cx="294.92" cy="142.49" r="142.03" gradientUnits="userSpaceOnUse"><stop offset="0" stop-color="#fcd700"/><stop offset=".24" stop-color="#f8ca00"/><stop offset=".69" stop-color="#f3b501"/><stop offset="1" stop-color="#f1ae01"/></radialGradient><radialGradient xlink:href="#radial-gradient" id="radial-gradient-2" cx="165.62" cy="21.89" r="216.24"/><radialGradient id="radial-gradient-3" cx="162.72" cy="1.4" r="68.16" gradientUnits="userSpaceOnUse"><stop offset="0" stop-color="#f5bc00"/><stop offset=".18" stop-color="#f0a801"/><stop offset=".52" stop-color="#e78701"/><stop offset=".81" stop-color="#e27202"/><stop offset="1" stop-color="#e06b02"/></radialGradient><radialGradient xlink:href="#radial-gradient-3" id="radial-gradient-4" cx="85.39" cy="143.22" r="102.8"/><radialGradient xlink:href="#radial-gradient-3" id="radial-gradient-5" cx="168.71" cy="96.7" r="140.71"/><linearGradient id="linear-gradient" x1="155.93" x2="105.9" y1="168.07" y2="41.05" gradientUnits="userSpaceOnUse"><stop offset="0" stop-color="#fff"/><stop offset=".27" stop-color="#a9a9a9"/><stop offset=".58" stop-color="#4f4f4f"/><stop offset=".79" stop-color="#161616"/><stop offset=".9"/></linearGradient><style>.cls-3{fill:#002c59}</style></defs><g style="isolation:isolate"><g id="bg"><path d="m474.57 142.48-36.9 44.91-36.9 44.92h-285.5v-14.63a75.21 75.21 0 0 0 0-150.41V52.66h285.5l36.9 44.92Z" style="fill:url(#radial-gradient)" transform="translate(-25.43 -8.06)"/><path d="m433.83 134.42-33.76 41.09-33.76 41.09H105.15v-13.39a68.8 68.8 0 0 0 0-137.59V52.26h261.16l33.76 41.08Z" class="cls-3"/><path d="M115.27 52.66a89.83 89.83 0 1 0 89.81 89.82 89.83 89.83 0 0 0-89.81-89.82Zm0 165a75.21 75.21 0 1 1 75.2-75.2 75.2 75.2 0 0 1-75.2 75.22Z" style="fill:#eac363" transform="translate(-25.43 -8.06)"/><circle cx="115.27" cy="142.48" r="75.2" class="cls-3" transform="rotate(-45 92.825 169.15)"/><path d="M57.74 22.67 32.34 141.1h46.9L47.58 282.98 148.42 93.81H93.31L148.42 0 57.74 22.67z" style="fill:url(#radial-gradient-2)"/><path d="m102.32 93.81 52.36-89.12L148.42 0 93.31 93.81h9.01z" style="fill:url(#radial-gradient-3)"/><path d="m32.34 141.1 6.25 4.69H78.2L47.58 282.98 79.24 141.1h-46.9z" style="fill:url(#radial-gradient-4)"/><path d="m47.58 282.98 6.26 4.69L154.68 98.5l-6.26-4.69L47.58 282.98z" style="fill:url(#radial-gradient-5)"/><path d="m118.75 101.86 55.11-93.8-90.68 22.67-22 102.4A122.71 122.71 0 0 0 120 126.3a123.8 123.8 0 0 0 40.27-24.44Z" style="mix-blend-mode:screen;fill:url(#linear-gradient)" transform="translate(-25.43 -8.06)"/></g><g id="text"><text id="energy" style="font-size:135.7px;fill:#fff;font-family:Nunito-Bold,Nunito;font-weight:700" transform="translate(232.62 182.81)">2</text></g></g></svg>